<svg id="visual" viewBox="0 0 900 600" width="900" height="600" xmlns="http://www.w3.org/2000/svg" xmlns:xlink="http://www.w3.org/1999/xlink" version="1.1"><rect x="0" y="0" width="900" height="600" fill="#71945c"></rect><g transform="translate(466.3626113523808 303.50251496135684)"><path d="M135.3 -139.4C218.6 -125.8 358.9 -144 366.7 -119.3C374.5 -94.6 249.7 -27 197.7 43C145.7 113.1 166.6 185.6 145.8 213C125 240.4 62.5 222.7 1.4 220.8C-59.8 218.9 -119.5 232.8 -169.3 214.8C-219.1 196.8 -258.8 146.9 -308.2 80.1C-357.6 13.2 -416.6 -70.7 -395.3 -126.1C-374 -181.5 -272.5 -208.5 -193.3 -223.4C-114 -238.3 -57 -241.1 -15.5 -219.8C26.1 -198.5 52.1 -153.1 135.3 -139.4" fill="#0b6241"></path></g></svg>