<svg id="visual" viewBox="0 0 900 600" width="900" height="600" xmlns="http://www.w3.org/2000/svg" xmlns:xlink="http://www.w3.org/1999/xlink" version="1.1"><rect width="900" height="600" fill="#04142b"></rect><g><g transform="translate(4 169)"><path d="M97.3 -35.4C109 4.6 89.8 50.9 56.6 74.2C23.4 97.4 -23.8 97.6 -59.4 73.7C-95 49.7 -118.9 1.7 -107.1 -38.5C-95.2 -78.6 -47.6 -110.7 -2.4 -110C42.8 -109.2 85.5 -75.4 97.3 -35.4Z" fill="none" stroke="#F7760E" stroke-width="20"></path></g><g transform="translate(875 275)"><path d="M59.2 -22.1C65.8 1.4 53 28.3 31.7 43.8C10.4 59.3 -19.3 63.4 -38.1 50.3C-56.9 37.2 -64.7 6.8 -56.5 -18.8C-48.4 -44.3 -24.2 -65 1 -65.4C26.2 -65.7 52.5 -45.6 59.2 -22.1Z" fill="none" stroke="#F7760E" stroke-width="20"></path></g><g transform="translate(316 441)"><path d="M86.7 -27.6C99.2 10.2 87 56.6 54.3 82C21.7 107.4 -31.4 111.9 -65.4 87.7C-99.4 63.6 -114.3 10.8 -100.3 -29.2C-86.2 -69.2 -43.1 -96.5 -3 -95.5C37.1 -94.6 74.3 -65.4 86.7 -27.6Z" fill="none" stroke="#F7760E" stroke-width="20"></path></g><g transform="translate(700 537)"><path d="M78.9 -27.6C89 5.3 74.7 44.2 47.6 63.3C20.6 82.4 -19.2 81.8 -46.1 62.5C-73 43.2 -87.1 5.1 -77.3 -27.5C-67.4 -60.1 -33.7 -87.2 0.4 -87.4C34.4 -87.5 68.8 -60.5 78.9 -27.6Z" stroke="#F7760E" fill="none" stroke-width="20"></path></g></g></svg>