<svg id="visual" viewBox="0 0 900 600" width="900" height="600" xmlns="http://www.w3.org/2000/svg" xmlns:xlink="http://www.w3.org/1999/xlink" version="1.1"><rect x="0" y="0" width="900" height="600" fill="#3e1d25"></rect><path d="M0 429L180 402L360 474L540 397L720 432L900 362L900 601L720 601L540 601L360 601L180 601L0 601Z" fill="#870027"></path><path d="M0 468L180 408L360 434L540 451L720 491L900 415L900 601L720 601L540 601L360 601L180 601L0 601Z" fill="#a5003f"></path><path d="M0 516L180 520L360 520L540 487L720 464L900 489L900 601L720 601L540 601L360 601L180 601L0 601Z" fill="#c2005b"></path><path d="M0 500L180 505L360 536L540 537L720 534L900 514L900 601L720 601L540 601L360 601L180 601L0 601Z" fill="#dd007c"></path><path d="M0 533L180 524L360 540L540 568L720 578L900 554L900 601L720 601L540 601L360 601L180 601L0 601Z" fill="#f50aa3"></path></svg>