<svg id="visual" viewBox="0 0 900 600" width="900" height="600" xmlns="http://www.w3.org/2000/svg" xmlns:xlink="http://www.w3.org/1999/xlink" version="1.1"><rect x="0" y="0" width="900" height="600" fill="#250739"></rect><path d="M0 383L150 383L150 376L300 376L300 437L450 437L450 389L600 389L600 446L750 446L750 370L900 370L900 398L900 601L900 601L750 601L750 601L600 601L600 601L450 601L450 601L300 601L300 601L150 601L150 601L0 601Z" fill="#033e89"></path><path d="M0 538L150 538L150 495L300 495L300 509L450 509L450 486L600 486L600 513L750 513L750 455L900 455L900 459L900 601L900 601L750 601L750 601L600 601L600 601L450 601L450 601L300 601L300 601L150 601L150 601L0 601Z" fill="#00548f"></path></svg>