<svg id="visual" viewBox="0 0 900 600" width="900" height="600" xmlns="http://www.w3.org/2000/svg" xmlns:xlink="http://www.w3.org/1999/xlink" version="1.1"><g stroke-width="1" stroke-linejoin="bevel"><path d="M445 307L570.5 276L469 217Z" fill="#3c2151" stroke="#3c2151"></path><path d="M570.5 276L583.5 225L469 217Z" fill="#a00047" stroke="#a00047"></path><path d="M445 307L548.5 396L570.5 276Z" fill="#3c2151" stroke="#3c2151"></path><path d="M570.5 276L654 222L583.5 225Z" fill="#a00047" stroke="#a00047"></path><path d="M445 307L466 401L548.5 396Z" fill="#000e19" stroke="#000e19"></path><path d="M687 276L654 222L570.5 276Z" fill="#8a0c52" stroke="#8a0c52"></path><path d="M583.5 225L579.5 111L469 217Z" fill="#bf1c24" stroke="#bf1c24"></path><path d="M469 217L345.5 218L445 307Z" fill="#000e19" stroke="#000e19"></path><path d="M445 307L326.5 423L466 401Z" fill="#252047" stroke="#252047"></path><path d="M345.5 218L333.5 305L445 307Z" fill="#b20238" stroke="#b20238"></path><path d="M654 222L579.5 111L583.5 225Z" fill="#a00047" stroke="#a00047"></path><path d="M469 217L457 81L345.5 218Z" fill="#000e19" stroke="#000e19"></path><path d="M548.5 396L654 378L570.5 276Z" fill="#121c39" stroke="#121c39"></path><path d="M654 378L687 276L570.5 276Z" fill="#bf1c24" stroke="#bf1c24"></path><path d="M579.5 111L457 81L469 217Z" fill="#071729" stroke="#071729"></path><path d="M326.5 423L431 474L466 401Z" fill="#561f57" stroke="#561f57"></path><path d="M466 401L557.5 480L548.5 396Z" fill="#701857" stroke="#701857"></path><path d="M548.5 396L557.5 480L654 378Z" fill="#bf1c24" stroke="#bf1c24"></path><path d="M431 474L557.5 480L466 401Z" fill="#3c2151" stroke="#3c2151"></path><path d="M333.5 305L326.5 423L445 307Z" fill="#a00047" stroke="#a00047"></path><path d="M812.5 219L677 110L654 222Z" fill="#a00047" stroke="#a00047"></path><path d="M654 222L677 110L579.5 111Z" fill="#121c39" stroke="#121c39"></path><path d="M578.5 0L438 0L457 81Z" fill="#000e19" stroke="#000e19"></path><path d="M457 81L315.5 81L345.5 218Z" fill="#a00047" stroke="#a00047"></path><path d="M345.5 218L233 289L333.5 305Z" fill="#3c2151" stroke="#3c2151"></path><path d="M333.5 305L233 289L326.5 423Z" fill="#071729" stroke="#071729"></path><path d="M654 378L771.5 307L687 276Z" fill="#3c2151" stroke="#3c2151"></path><path d="M687 276L812.5 219L654 222Z" fill="#3c2151" stroke="#3c2151"></path><path d="M783.5 388L771.5 307L654 378Z" fill="#b20238" stroke="#b20238"></path><path d="M555.5 600L666 491L557.5 480Z" fill="#3c2151" stroke="#3c2151"></path><path d="M557.5 480L666 491L654 378Z" fill="#561f57" stroke="#561f57"></path><path d="M242 175L233 289L345.5 218Z" fill="#121c39" stroke="#121c39"></path><path d="M315.5 81L242 175L345.5 218Z" fill="#071729" stroke="#071729"></path><path d="M457 81L348.5 0L315.5 81Z" fill="#121c39" stroke="#121c39"></path><path d="M578.5 0L457 81L579.5 111Z" fill="#a00047" stroke="#a00047"></path><path d="M659 0L578.5 0L579.5 111Z" fill="#000e19" stroke="#000e19"></path><path d="M326.5 423L315.5 489L431 474Z" fill="#b20238" stroke="#b20238"></path><path d="M446 600L555.5 600L557.5 480Z" fill="#071729" stroke="#071729"></path><path d="M221 425L315.5 489L326.5 423Z" fill="#701857" stroke="#701857"></path><path d="M762.5 490L783.5 388L654 378Z" fill="#121c39" stroke="#121c39"></path><path d="M315.5 81L238 120L242 175Z" fill="#071729" stroke="#071729"></path><path d="M136.5 179L129.5 323L233 289Z" fill="#bf1c24" stroke="#bf1c24"></path><path d="M225 0L238 120L315.5 81Z" fill="#252047" stroke="#252047"></path><path d="M771.5 307L812.5 219L687 276Z" fill="#121c39" stroke="#121c39"></path><path d="M677 110L659 0L579.5 111Z" fill="#071729" stroke="#071729"></path><path d="M900 296L812.5 219L771.5 307Z" fill="#8a0c52" stroke="#8a0c52"></path><path d="M438 0L348.5 0L457 81Z" fill="#3c2151" stroke="#3c2151"></path><path d="M762.5 0L659 0L677 110Z" fill="#8a0c52" stroke="#8a0c52"></path><path d="M129.5 323L221 425L233 289Z" fill="#bf1c24" stroke="#bf1c24"></path><path d="M233 289L221 425L326.5 423Z" fill="#b20238" stroke="#b20238"></path><path d="M446 600L557.5 480L431 474Z" fill="#3c2151" stroke="#3c2151"></path><path d="M666 491L762.5 490L654 378Z" fill="#701857" stroke="#701857"></path><path d="M362.5 600L431 474L315.5 489Z" fill="#b20238" stroke="#b20238"></path><path d="M362.5 600L446 600L431 474Z" fill="#a00047" stroke="#a00047"></path><path d="M683 600L762.5 490L666 491Z" fill="#561f57" stroke="#561f57"></path><path d="M812.5 219L800.5 112L677 110Z" fill="#000e19" stroke="#000e19"></path><path d="M236 600L362.5 600L315.5 489Z" fill="#252047" stroke="#252047"></path><path d="M555.5 600L683 600L666 491Z" fill="#bf1c24" stroke="#bf1c24"></path><path d="M221 425L221 520L315.5 489Z" fill="#3c2151" stroke="#3c2151"></path><path d="M136.5 179L233 289L242 175Z" fill="#8a0c52" stroke="#8a0c52"></path><path d="M221 425L125.5 505L221 520Z" fill="#bf1c24" stroke="#bf1c24"></path><path d="M800.5 112L762.5 0L677 110Z" fill="#561f57" stroke="#561f57"></path><path d="M90.5 113L136.5 179L238 120Z" fill="#a00047" stroke="#a00047"></path><path d="M238 120L136.5 179L242 175Z" fill="#071729" stroke="#071729"></path><path d="M348.5 0L225 0L315.5 81Z" fill="#121c39" stroke="#121c39"></path><path d="M129.5 323L127.5 393L221 425Z" fill="#a00047" stroke="#a00047"></path><path d="M900 377L771.5 307L783.5 388Z" fill="#121c39" stroke="#121c39"></path><path d="M900 377L900 296L771.5 307Z" fill="#3c2151" stroke="#3c2151"></path><path d="M812.5 219L900 114L800.5 112Z" fill="#121c39" stroke="#121c39"></path><path d="M800.5 112L900 0L762.5 0Z" fill="#3c2151" stroke="#3c2151"></path><path d="M900 296L900 218L812.5 219Z" fill="#561f57" stroke="#561f57"></path><path d="M900 477L900 377L783.5 388Z" fill="#000e19" stroke="#000e19"></path><path d="M900 477L783.5 388L762.5 490Z" fill="#a00047" stroke="#a00047"></path><path d="M221 520L236 600L315.5 489Z" fill="#a00047" stroke="#a00047"></path><path d="M97.5 600L236 600L221 520Z" fill="#8a0c52" stroke="#8a0c52"></path><path d="M683 600L772.5 600L762.5 490Z" fill="#b20238" stroke="#b20238"></path><path d="M900 218L900 114L812.5 219Z" fill="#561f57" stroke="#561f57"></path><path d="M127.5 393L125.5 505L221 425Z" fill="#000e19" stroke="#000e19"></path><path d="M126.5 0L90.5 113L238 120Z" fill="#b20238" stroke="#b20238"></path><path d="M0 216L0 285L129.5 323Z" fill="#121c39" stroke="#121c39"></path><path d="M129.5 323L0 414L127.5 393Z" fill="#121c39" stroke="#121c39"></path><path d="M127.5 393L0 414L125.5 505Z" fill="#3c2151" stroke="#3c2151"></path><path d="M900 600L900 477L762.5 490Z" fill="#071729" stroke="#071729"></path><path d="M225 0L126.5 0L238 120Z" fill="#561f57" stroke="#561f57"></path><path d="M900 114L900 0L800.5 112Z" fill="#701857" stroke="#701857"></path><path d="M0 216L136.5 179L90.5 113Z" fill="#3c2151" stroke="#3c2151"></path><path d="M0 216L129.5 323L136.5 179Z" fill="#bf1c24" stroke="#bf1c24"></path><path d="M0 87L0 216L90.5 113Z" fill="#bf1c24" stroke="#bf1c24"></path><path d="M772.5 600L900 600L762.5 490Z" fill="#252047" stroke="#252047"></path><path d="M0 488L97.5 600L125.5 505Z" fill="#071729" stroke="#071729"></path><path d="M125.5 505L97.5 600L221 520Z" fill="#b20238" stroke="#b20238"></path><path d="M0 285L0 414L129.5 323Z" fill="#121c39" stroke="#121c39"></path><path d="M0 0L0 87L90.5 113Z" fill="#bf1c24" stroke="#bf1c24"></path><path d="M0 414L0 488L125.5 505Z" fill="#b20238" stroke="#b20238"></path><path d="M126.5 0L0 0L90.5 113Z" fill="#252047" stroke="#252047"></path><path d="M0 488L0 600L97.5 600Z" fill="#b20238" stroke="#b20238"></path></g></svg>