<svg id="visual" viewBox="0 0 960 540" width="960" height="540" xmlns="http://www.w3.org/2000/svg" xmlns:xlink="http://www.w3.org/1999/xlink" version="1.1"><rect width="960" height="540" fill="#001829"></rect><g><g transform="translate(52 274)"><path d="M0 -109.8L95.1 -54.9L95.1 54.9L0 109.8L-95.1 54.9L-95.1 -54.9Z" stroke="#629ab4" fill="none" stroke-width="2"></path></g><g transform="translate(546 34)"><path d="M0 -64L55.4 -32L55.4 32L0 64L-55.4 32L-55.4 -32Z" stroke="#629ab4" fill="none" stroke-width="2"></path></g><g transform="translate(562 323)"><path d="M0 -90L77.9 -45L77.9 45L0 90L-77.9 45L-77.9 -45Z" stroke="#629ab4" fill="none" stroke-width="2"></path></g><g transform="translate(192 101)"><path d="M0 -102L88.3 -51L88.3 51L0 102L-88.3 51L-88.3 -51Z" stroke="#629ab4" fill="none" stroke-width="2"></path></g><g transform="translate(925 229)"><path d="M0 -79L68.4 -39.5L68.4 39.5L0 79L-68.4 39.5L-68.4 -39.5Z" stroke="#629ab4" fill="none" stroke-width="2"></path></g></g></svg>