<svg id="visual" viewBox="0 0 960 540" width="960" height="540" xmlns="http://www.w3.org/2000/svg" xmlns:xlink="http://www.w3.org/1999/xlink" version="1.1"><path d="M0 28L20 30.7C40 33.3 80 38.7 120 38.7C160 38.7 200 33.3 240 33.3C280 33.3 320 38.7 360 45C400 51.3 440 58.7 480 60.5C520 62.3 560 58.7 600 52.3C640 46 680 37 720 38.8C760 40.7 800 53.3 840 56C880 58.7 920 51.3 940 47.7L960 44L960 0L940 0C920 0 880 0 840 0C800 0 760 0 720 0C680 0 640 0 600 0C560 0 520 0 480 0C440 0 400 0 360 0C320 0 280 0 240 0C200 0 160 0 120 0C80 0 40 0 20 0L0 0Z" fill="#ffbb5f"></path><path d="M0 82L20 83.8C40 85.7 80 89.3 120 89.3C160 89.3 200 85.7 240 92.8C280 100 320 118 360 127.8C400 137.7 440 139.3 480 133C520 126.7 560 112.3 600 109.7C640 107 680 116 720 119.7C760 123.3 800 121.7 840 115.3C880 109 920 98 940 92.5L960 87L960 42L940 45.7C920 49.3 880 56.7 840 54C800 51.3 760 38.7 720 36.8C680 35 640 44 600 50.3C560 56.7 520 60.3 480 58.5C440 56.7 400 49.3 360 43C320 36.7 280 31.3 240 31.3C200 31.3 160 36.7 120 36.7C80 36.7 40 31.3 20 28.7L0 26Z" fill="#ffa329"></path><path d="M0 120L20 123.5C40 127 80 134 120 140.3C160 146.7 200 152.3 240 159.7C280 167 320 176 360 188.5C400 201 440 217 480 217C520 217 560 201 600 199.2C640 197.3 680 209.7 720 213.2C760 216.7 800 211.3 840 202.3C880 193.3 920 180.7 940 174.3L960 168L960 85L940 90.5C920 96 880 107 840 113.3C800 119.7 760 121.3 720 117.7C680 114 640 105 600 107.7C560 110.3 520 124.7 480 131C440 137.3 400 135.7 360 125.8C320 116 280 98 240 90.8C200 83.7 160 87.3 120 87.3C80 87.3 40 83.7 20 81.8L0 80Z" fill="#e18702"></path><path d="M0 163L20 163C40 163 80 163 120 165.7C160 168.3 200 173.7 240 180.8C280 188 320 197 360 210.5C400 224 440 242 480 243C520 244 560 228 600 228C640 228 680 244 720 246.7C760 249.3 800 238.7 840 232.3C880 226 920 224 940 223L960 222L960 166L940 172.3C920 178.7 880 191.3 840 200.3C800 209.3 760 214.7 720 211.2C680 207.7 640 195.3 600 197.2C560 199 520 215 480 215C440 215 400 199 360 186.5C320 174 280 165 240 157.7C200 150.3 160 144.7 120 138.3C80 132 40 125 20 121.5L0 118Z" fill="#ba7004"></path><path d="M0 341L20 337.5C40 334 80 327 120 320.7C160 314.3 200 308.7 240 301.3C280 294 320 285 360 294C400 303 440 330 480 331.8C520 333.7 560 310.3 600 318.5C640 326.7 680 366.3 720 374.5C760 382.7 800 359.3 840 340.5C880 321.7 920 307.3 940 300.2L960 293L960 220L940 221C920 222 880 224 840 230.3C800 236.7 760 247.3 720 244.7C680 242 640 226 600 226C560 226 520 242 480 241C440 240 400 222 360 208.5C320 195 280 186 240 178.8C200 171.7 160 166.3 120 163.7C80 161 40 161 20 161L0 161Z" fill="#ba7004"></path><path d="M0 379L20 371.8C40 364.7 80 350.3 120 341.3C160 332.3 200 328.7 240 321.5C280 314.3 320 303.7 360 313.5C400 323.3 440 353.7 480 356.3C520 359 560 334 600 341.3C640 348.7 680 388.3 720 398.2C760 408 800 388 840 371.7C880 355.3 920 342.7 940 336.3L960 330L960 291L940 298.2C920 305.3 880 319.7 840 338.5C800 357.3 760 380.7 720 372.5C680 364.3 640 324.7 600 316.5C560 308.3 520 331.7 480 329.8C440 328 400 301 360 292C320 283 280 292 240 299.3C200 306.7 160 312.3 120 318.7C80 325 40 332 20 335.5L0 339Z" fill="#e18702"></path><path d="M0 433L20 425.8C40 418.7 80 404.3 120 399C160 393.7 200 397.3 240 391C280 384.7 320 368.3 360 370C400 371.7 440 391.3 480 395C520 398.7 560 386.3 600 393.7C640 401 680 428 720 434.2C760 440.3 800 425.7 840 412.2C880 398.7 920 386.3 940 380.2L960 374L960 328L940 334.3C920 340.7 880 353.3 840 369.7C800 386 760 406 720 396.2C680 386.3 640 346.7 600 339.3C560 332 520 357 480 354.3C440 351.7 400 321.3 360 311.5C320 301.7 280 312.3 240 319.5C200 326.7 160 330.3 120 339.3C80 348.3 40 362.7 20 369.8L0 377Z" fill="#ffa329"></path><path d="M0 541L20 541C40 541 80 541 120 541C160 541 200 541 240 541C280 541 320 541 360 541C400 541 440 541 480 541C520 541 560 541 600 541C640 541 680 541 720 541C760 541 800 541 840 541C880 541 920 541 940 541L960 541L960 372L940 378.2C920 384.3 880 396.7 840 410.2C800 423.7 760 438.3 720 432.2C680 426 640 399 600 391.7C560 384.3 520 396.7 480 393C440 389.3 400 369.7 360 368C320 366.3 280 382.7 240 389C200 395.3 160 391.7 120 397C80 402.3 40 416.7 20 423.8L0 431Z" fill="#ffbb5f"></path></svg>