<svg id="visual" viewBox="0 0 900 600" width="900" height="600" xmlns="http://www.w3.org/2000/svg" xmlns:xlink="http://www.w3.org/1999/xlink" version="1.1"><rect x="0" y="0" width="900" height="600" fill="#002233"></rect><path d="M0 380L30 380.2C60 380.3 120 380.7 180 400C240 419.3 300 457.7 360 474.5C420 491.3 480 486.7 540 470.7C600 454.7 660 427.3 720 423.8C780 420.3 840 440.7 870 450.8L900 461L900 601L870 601C840 601 780 601 720 601C660 601 600 601 540 601C480 601 420 601 360 601C300 601 240 601 180 601C120 601 60 601 30 601L0 601Z" fill="#00a6ff" stroke-linecap="round" stroke-linejoin="miter"></path></svg>